<?xml version="1.0" encoding="UTF-8"?><!DOCTYPE svg PUBLIC "-//W3C//DTD SVG 1.1//EN" "http://www.w3.org/Graphics/SVG/1.1/DTD/svg11.dtd"><svg xmlns="http://www.w3.org/2000/svg" xmlns:xlink="http://www.w3.org/1999/xlink"><symbol id="icon-editor-contrast" viewBox="-35.422 -7.96 31.92 31.92">
  <path fill="#231F20" d="M-19.462-3.96c6.595,0,11.96,5.365,11.96,11.96s-5.365,11.96-11.96,11.96S-31.422,14.595-31.422,8 S-26.057-3.96-19.462-3.96 M-19.462-7.96c-8.814,0-15.96,7.145-15.96,15.96c0,8.813,7.146,15.96,15.96,15.96S-3.502,16.813-3.502,8 C-3.502-0.815-10.648-7.96-19.462-7.96L-19.462-7.96z"/>
  <path d="M-19.462,16.331c4.706,0,8.52-3.813,8.52-8.52c0-4.705-3.813-8.519-8.52-8.519"/>
</symbol><symbol id="icon-editor-crop" viewBox="0 0 48 48">
  <path fill="none" d="M0,0h48v48H0V0z"/>
  <path d="M34,30h4V14c0-2.21-1.79-4-4-4H18v4h16V30z M14,34V2h-4v8H2v4h8v20c0,2.21,1.79,4,4,4h20v8h4v-8h8v-4H14z"/>
</symbol><symbol id="icon-editor-diagram-fill" viewBox="22.5 69.048 253 253">
  <path fill="#231F20" d="M149,69.048c-69.864,0-126.5,56.636-126.5,126.5c0,69.864,56.636,126.5,126.5,126.5 s126.5-56.636,126.5-126.5C275.5,125.685,218.864,69.048,149,69.048z M149,306.264c-60.844,0-110.167-49.323-110.167-110.167 C38.833,135.253,88.156,85.93,149,85.93c60.843,0,110.167,49.323,110.167,110.167C259.167,256.941,209.843,306.264,149,306.264z"/>
</symbol><symbol id="icon-editor-fill" viewBox="0 0 48 48">
  <path fill="none" d="M0,0h48v48H0V0z"/>
  <path d="M33.12,17.88L15.24,0l-2.83,2.83l4.76,4.76L6.88,17.88c-1.17,1.17-1.17,3.07,0,4.24l11,11C18.46,33.71,19.23,34,20,34 s1.54-0.29,2.12-0.88l11-11C34.29,20.95,34.29,19.05,33.12,17.88z M10.41,20L20,10.42L29.59,20H10.41z M38,23c0,0-4,4.33-4,7 c0,2.21,1.79,4,4,4s4-1.79,4-4C42,27.33,38,23,38,23z"/>
  <rect y="40" width="48" height="3"/>
</symbol><symbol id="icon-mail" viewBox="0 0 17.988 13.966">
  <g>
    <g>
      <g>
        <path fill="#FFFFFF" d="M14.914,1.814C16.111,0.816,15.816,0,14.257,0H3.731c-1.56,0-1.854,0.816-0.657,1.814l3.742,3.118 c1.197,0.998,3.158,0.998,4.355,0L14.914,1.814z"/>
      </g>
      <g>
        <path fill="#FFFFFF" d="M11.913,7.044C10.715,8.042,9.718,8.869,9.695,8.88c0,0,0,0-0.02,0.013 C9.601,8.949,9.523,8.995,9.44,9.029C9.407,9.044,9.374,9.063,9.34,9.077c-0.11,0.034-0.223,0.058-0.335,0.059 c-0.003,0-0.007,0.001-0.01,0.001c0,0,0,0-0.001,0s-0.001,0-0.001,0c-0.003,0-0.007-0.001-0.01-0.001 C8.87,9.134,8.759,9.111,8.648,9.077C8.614,9.063,8.58,9.044,8.548,9.029c-0.083-0.034-0.16-0.08-0.235-0.136C8.293,8.88,8.293,8.88,8.293,8.88c-0.022-0.012-1.02-0.838-2.218-1.836L2.178,3.796C0.979,2.798,0,3.257,0,4.816v6.315 c0,1.56,1.275,2.835,2.835,2.835h12.318c1.56,0,2.835-1.275,2.835-2.835V4.816c0-1.559-0.979-2.018-2.178-1.02L11.913,7.044z"/>
      </g>
    </g>
  </g>
</symbol><symbol id="icon-map-marker" viewBox="0 0 35.983 35.983">
  <circle fill="#FFFFFF" cx="17.991" cy="17.991" r="17.991"/>
  <circle fill="#D22856" cx="17.991" cy="17.991" r="7.866"/>
</symbol><symbol id="icon-menu-burger" viewBox="0 0 49.945 24.007">
  <g id="miu">
    <g id="editor_list_view_hambuger_menu_glyph">
      <g>
        <path id="path-1" fill="#FFFFFF" d="M1.137,0C0.51,0,0,0.428,0,1.01v1.981c0,0.558,0.494,1.01,1.139,1.01h47.671 c0.628,0,1.138-0.428,1.138-1.01V1.01c0-0.558-0.494-1.01-1.138-1.01H1.137z M1.137,10.003C0.51,10.003,0,10.431,0,11.013v1.98 c0,0.557,0.494,1.01,1.139,1.01h47.671c0.628,0,1.138-0.428,1.138-1.01v-1.98c0-0.558-0.494-1.01-1.138-1.01H1.137z M1.137,20.005C0.51,20.005,0,20.434,0,21.016v1.981c0,0.557,0.494,1.01,1.139,1.01h47.671c0.628,0,1.138-0.428,1.138-1.01 v-1.981c0-0.558-0.494-1.011-1.138-1.011H1.137z"/>
      </g>
      <g>
        <path id="path-1_1_" fill="#FFFFFF" d="M1.137,0C0.51,0,0,0.428,0,1.01v1.981c0,0.558,0.494,1.01,1.139,1.01h47.671 c0.628,0,1.138-0.428,1.138-1.01V1.01c0-0.558-0.494-1.01-1.138-1.01H1.137z M1.137,10.003C0.51,10.003,0,10.431,0,11.013v1.98 c0,0.557,0.494,1.01,1.139,1.01h47.671c0.628,0,1.138-0.428,1.138-1.01v-1.98c0-0.558-0.494-1.01-1.138-1.01H1.137z M1.137,20.005C0.51,20.005,0,20.434,0,21.016v1.981c0,0.557,0.494,1.01,1.139,1.01h47.671c0.628,0,1.138-0.428,1.138-1.01 v-1.981c0-0.558-0.494-1.011-1.138-1.011H1.137z"/>
      </g>
    </g>
  </g>
</symbol><symbol id="icon-menu-cross" viewBox="0 0 23.867 23.867">
  <path fill="#FFFFFF" d="M15.087,11.933l8.56-8.559c0.293-0.293,0.293-0.768,0-1.061L21.554,0.22C21.414,0.079,21.223,0,21.023,0 c-0.199,0-0.391,0.079-0.529,0.22l-8.561,8.56l-8.56-8.56c-0.282-0.282-0.78-0.282-1.061,0L0.22,2.313 c-0.293,0.293-0.293,0.768,0,1.061l8.56,8.559l-8.56,8.559c-0.293,0.293-0.293,0.768,0,1.062l2.093,2.094 c0.141,0.142,0.331,0.22,0.53,0.22c0.199,0,0.39-0.078,0.53-0.22l8.561-8.56l8.56,8.56c0.141,0.142,0.332,0.22,0.53,0.22 c0.199,0,0.39-0.078,0.53-0.22l2.093-2.094c0.293-0.294,0.293-0.769,0-1.062L15.087,11.933z"/>
</symbol><symbol id="icon-phone" viewBox="0 0 19.697 19.696">
  <path fill="#FFFFFF" d="M9.848,0C6.34,0,2.823,0.628,1.546,1.878c-1.058,1.04-1.412,2.874-1.53,4.035c0,0-0.016,0.115-0.016,0.165 c0,0.454,0.369,0.82,0.819,0.82c0.054,0,2.028-0.161,3.218-0.259c0.029-0.004,0.058-0.008,0.086-0.017 C4.566,6.61,4.924,6.25,4.924,5.803l0.003-1.617c0-0.5,0.407-0.902,0.907-0.902h8.027c0.499,0,0.907,0.402,0.907,0.902l0.003,1.617 c0,0.447,0.356,0.808,0.802,0.82c0.027,0.009,0.056,0.013,0.085,0.017c1.19,0.098,3.164,0.259,3.217,0.259 c0.451,0,0.822-0.366,0.822-0.82c0-0.05-0.018-0.165-0.018-0.165c-0.118-1.161-0.472-2.995-1.53-4.035 C16.873,0.628,13.356,0,9.848,0z M9.848,10.67c-0.908,0-1.643,0.733-1.643,1.64c0,0.907,0.734,1.641,1.643,1.641 c0.906,0,1.641-0.733,1.641-1.641C11.488,11.404,10.754,10.67,9.848,10.67z M8.616,6.975V5.951c0-0.567-0.46-1.026-1.025-1.026 c-0.566,0-1.024,0.459-1.024,1.026v1.024l-5.537,5.913c-0.382,0.376-0.619,0.894-0.619,1.47v1.646c0,0.907,0.734,1.643,1.641,1.643 h0.411v1.023c0,0.568,0.46,1.026,1.026,1.026c0.565,0,1.024-0.458,1.024-1.026v-1.023h10.669v1.023c0,0.568,0.46,1.026,1.025,1.026 c0.567,0,1.026-0.458,1.026-1.026v-1.023h0.411c0.905,0,1.64-0.735,1.64-1.643v-1.646c0-0.576-0.236-1.094-0.618-1.47L13.13,6.975 V5.951c0-0.567-0.459-1.026-1.024-1.026c-0.567,0-1.027,0.459-1.027,1.026v1.024H8.616z M9.848,9.028 c1.814,0,3.282,1.468,3.282,3.282s-1.468,3.282-3.282,3.282c-1.813,0-3.281-1.468-3.281-3.282S8.034,9.028,9.848,9.028z"/>
</symbol><symbol id="icon-quotes" viewBox="0 0 78.672 63.789">
  <g>
    <path d="M34.967,7.063L30.713,0C28.272,1.495,0,12.207,0,39.617c0,7.231,0.336,24.172,18.9,24.172 c11.187,0,13.94-10.279,13.94-13.584c0-21.977-21.382-14.177-21.382-14.177C11.458,17.957,31.263,9.184,34.967,7.063z"/>
  </g>
  <g>
    <path d="M78.672,7.063L74.418,0c-2.44,1.495-30.713,12.207-30.713,39.617c0,7.231,0.337,24.172,18.9,24.172 c11.187,0,13.939-10.279,13.939-13.584c0-21.977-21.381-14.177-21.381-14.177C55.165,17.957,74.969,9.184,78.672,7.063z"/>
  </g>
</symbol><symbol id="icon-review-arrow-left" viewBox="0 0 21.706 41.719">
  <path d="M2.045,20.859L21.458,1.446c0.331-0.331,0.331-0.867,0-1.198c-0.33-0.331-0.867-0.331-1.197,0L0.248,20.261 c-0.331,0.33-0.331,0.867,0,1.197l20.013,20.013c0.164,0.165,0.382,0.248,0.599,0.248s0.434-0.083,0.599-0.248 c0.331-0.331,0.331-0.867,0-1.198L2.045,20.859z"/>
</symbol><symbol id="icon-review-arrow-right" viewBox="0 0 21.706 41.719">
  <path d="M19.661,20.859L0.248,1.446c-0.331-0.331-0.331-0.867,0-1.198c0.33-0.331,0.867-0.331,1.197,0l20.013,20.012 c0.33,0.33,0.33,0.867,0,1.197L1.445,41.471c-0.164,0.165-0.382,0.248-0.599,0.248s-0.434-0.083-0.599-0.248 c-0.331-0.331-0.331-0.867,0-1.198L19.661,20.859z"/>
</symbol><symbol id="icon-timer" viewBox="0 0 298 345.097">
  <path d="M264.568,102.055l5.355-5.355c7.717-7.717,9.124-18.938,3.126-24.935c-5.997-5.997-17.217-4.59-24.934,3.127l-5.386,5.385 C221.768,63.292,196.11,51.875,168,48.297v-9.583h7.658c10.914,0,19.843-8.711,19.843-19.357S186.573,0,175.659,0h-53.317  c-10.913,0-19.842,8.711-19.842,19.357s8.929,19.357,19.842,19.357H130v9.583C56.681,57.629,0,120.244,0,196.097  c0,82.291,66.709,149,149,149c82.29,0,149-66.709,149-149C298,160.434,285.465,127.703,264.568,102.055z M149,306.264 c-60.844,0-110.167-49.323-110.167-110.167S88.156,85.93,149,85.93c60.843,0,110.167,49.323,110.167,110.167  S209.843,306.264,149,306.264z"/>
</symbol></svg>